<mxfile host="app.diagrams.net" modified="2023-03-28T12:34:43.566Z" agent="Mozilla/5.0 (Windows NT 10.0; Win64; x64; rv:109.0) Gecko/20100101 Firefox/111.0" etag="LBJklDzYs3tXyfMAbdgE" version="21.1.1" type="device">
  <diagram name="Strona-1" id="qz5uZz8e9Ap-dDOR8-XM">
    <mxGraphModel dx="1050" dy="566" grid="1" gridSize="10" guides="1" tooltips="1" connect="1" arrows="1" fold="1" page="1" pageScale="1" pageWidth="1654" pageHeight="2336" math="0" shadow="0">
      <root>
        <mxCell id="0" />
        <mxCell id="1" parent="0" />
        <mxCell id="5B2IT87cEvPTBrd7m4uQ-1" value="Start" style="ellipse;whiteSpace=wrap;html=1;" vertex="1" parent="1">
          <mxGeometry x="460" width="120" height="80" as="geometry" />
        </mxCell>
        <mxCell id="5B2IT87cEvPTBrd7m4uQ-2" value="" style="endArrow=classic;html=1;rounded=0;exitX=0.5;exitY=1;exitDx=0;exitDy=0;" edge="1" parent="1" source="5B2IT87cEvPTBrd7m4uQ-1">
          <mxGeometry width="50" height="50" relative="1" as="geometry">
            <mxPoint x="460" y="270" as="sourcePoint" />
            <mxPoint x="520" y="140" as="targetPoint" />
          </mxGeometry>
        </mxCell>
        <mxCell id="5B2IT87cEvPTBrd7m4uQ-3" value="Wprowadź a, b" style="shape=parallelogram;perimeter=parallelogramPerimeter;whiteSpace=wrap;html=1;fixedSize=1;" vertex="1" parent="1">
          <mxGeometry x="460" y="140" width="120" height="60" as="geometry" />
        </mxCell>
        <mxCell id="5B2IT87cEvPTBrd7m4uQ-4" value="" style="endArrow=classic;html=1;rounded=0;exitX=0.5;exitY=1;exitDx=0;exitDy=0;" edge="1" parent="1" source="5B2IT87cEvPTBrd7m4uQ-3">
          <mxGeometry width="50" height="50" relative="1" as="geometry">
            <mxPoint x="460" y="270" as="sourcePoint" />
            <mxPoint x="520" y="240" as="targetPoint" />
          </mxGeometry>
        </mxCell>
        <mxCell id="5B2IT87cEvPTBrd7m4uQ-7" value="&lt;div&gt;NWWa=a&lt;/div&gt;&lt;div&gt;NWWb=b&lt;br&gt;&lt;/div&gt;" style="whiteSpace=wrap;html=1;aspect=fixed;" vertex="1" parent="1">
          <mxGeometry x="480" y="240" width="80" height="80" as="geometry" />
        </mxCell>
        <mxCell id="5B2IT87cEvPTBrd7m4uQ-8" value="" style="endArrow=classic;html=1;rounded=0;exitX=0.588;exitY=1;exitDx=0;exitDy=0;exitPerimeter=0;" edge="1" parent="1" source="5B2IT87cEvPTBrd7m4uQ-7">
          <mxGeometry width="50" height="50" relative="1" as="geometry">
            <mxPoint x="450" y="310" as="sourcePoint" />
            <mxPoint x="520" y="370" as="targetPoint" />
          </mxGeometry>
        </mxCell>
        <mxCell id="5B2IT87cEvPTBrd7m4uQ-9" value="NWWa==NWWb" style="rhombus;whiteSpace=wrap;html=1;" vertex="1" parent="1">
          <mxGeometry x="460" y="370" width="100" height="100" as="geometry" />
        </mxCell>
        <mxCell id="5B2IT87cEvPTBrd7m4uQ-10" value="" style="endArrow=classic;html=1;rounded=0;exitX=1;exitY=0.5;exitDx=0;exitDy=0;" edge="1" parent="1" source="5B2IT87cEvPTBrd7m4uQ-9">
          <mxGeometry width="50" height="50" relative="1" as="geometry">
            <mxPoint x="450" y="400" as="sourcePoint" />
            <mxPoint x="620" y="420" as="targetPoint" />
          </mxGeometry>
        </mxCell>
        <mxCell id="5B2IT87cEvPTBrd7m4uQ-13" value="TAK" style="whiteSpace=wrap;html=1;aspect=fixed;" vertex="1" parent="1">
          <mxGeometry x="580" y="380" width="30" height="30" as="geometry" />
        </mxCell>
        <mxCell id="5B2IT87cEvPTBrd7m4uQ-14" value="NIE" style="whiteSpace=wrap;html=1;aspect=fixed;" vertex="1" parent="1">
          <mxGeometry x="350" y="370" width="30" height="30" as="geometry" />
        </mxCell>
        <mxCell id="5B2IT87cEvPTBrd7m4uQ-15" value="Wypisz:&quot;NWW to NWWa&quot;" style="shape=parallelogram;perimeter=parallelogramPerimeter;whiteSpace=wrap;html=1;fixedSize=1;" vertex="1" parent="1">
          <mxGeometry x="620" y="400" width="120" height="60" as="geometry" />
        </mxCell>
        <mxCell id="5B2IT87cEvPTBrd7m4uQ-16" value="" style="endArrow=classic;html=1;rounded=0;exitX=0;exitY=0.5;exitDx=0;exitDy=0;" edge="1" parent="1" source="5B2IT87cEvPTBrd7m4uQ-9">
          <mxGeometry width="50" height="50" relative="1" as="geometry">
            <mxPoint x="450" y="400" as="sourcePoint" />
            <mxPoint x="340" y="420" as="targetPoint" />
          </mxGeometry>
        </mxCell>
        <mxCell id="5B2IT87cEvPTBrd7m4uQ-17" value="&lt;div&gt;NWWa=NWWa+a&lt;/div&gt;&lt;div&gt;NWWb=NWWb+b&lt;br&gt;&lt;/div&gt;" style="whiteSpace=wrap;html=1;aspect=fixed;" vertex="1" parent="1">
          <mxGeometry x="230" y="380" width="110" height="110" as="geometry" />
        </mxCell>
        <mxCell id="5B2IT87cEvPTBrd7m4uQ-18" value="" style="endArrow=classic;html=1;rounded=0;exitX=0.955;exitY=0.636;exitDx=0;exitDy=0;exitPerimeter=0;" edge="1" parent="1" source="5B2IT87cEvPTBrd7m4uQ-17" target="5B2IT87cEvPTBrd7m4uQ-9">
          <mxGeometry width="50" height="50" relative="1" as="geometry">
            <mxPoint x="450" y="400" as="sourcePoint" />
            <mxPoint x="500" y="350" as="targetPoint" />
          </mxGeometry>
        </mxCell>
        <mxCell id="5B2IT87cEvPTBrd7m4uQ-19" value="STOP" style="ellipse;whiteSpace=wrap;html=1;" vertex="1" parent="1">
          <mxGeometry x="790" y="380" width="120" height="80" as="geometry" />
        </mxCell>
        <mxCell id="5B2IT87cEvPTBrd7m4uQ-20" value="" style="endArrow=classic;html=1;rounded=0;exitX=1;exitY=0.5;exitDx=0;exitDy=0;" edge="1" parent="1" source="5B2IT87cEvPTBrd7m4uQ-15">
          <mxGeometry width="50" height="50" relative="1" as="geometry">
            <mxPoint x="490" y="410" as="sourcePoint" />
            <mxPoint x="790" y="430" as="targetPoint" />
          </mxGeometry>
        </mxCell>
        <mxCell id="5B2IT87cEvPTBrd7m4uQ-21" value="Zadanie 22" style="whiteSpace=wrap;html=1;aspect=fixed;" vertex="1" parent="1">
          <mxGeometry x="170" width="80" height="80" as="geometry" />
        </mxCell>
        <mxCell id="5B2IT87cEvPTBrd7m4uQ-22" value="Zadanie 24" style="whiteSpace=wrap;html=1;aspect=fixed;" vertex="1" parent="1">
          <mxGeometry x="520" y="730" width="80" height="80" as="geometry" />
        </mxCell>
        <mxCell id="5B2IT87cEvPTBrd7m4uQ-23" value="Start" style="ellipse;whiteSpace=wrap;html=1;" vertex="1" parent="1">
          <mxGeometry x="620" y="740" width="120" height="80" as="geometry" />
        </mxCell>
        <mxCell id="5B2IT87cEvPTBrd7m4uQ-24" value="" style="endArrow=classic;html=1;rounded=0;exitX=0.5;exitY=1;exitDx=0;exitDy=0;" edge="1" parent="1" source="5B2IT87cEvPTBrd7m4uQ-23">
          <mxGeometry width="50" height="50" relative="1" as="geometry">
            <mxPoint x="620" y="1010" as="sourcePoint" />
            <mxPoint x="680" y="880" as="targetPoint" />
          </mxGeometry>
        </mxCell>
        <mxCell id="5B2IT87cEvPTBrd7m4uQ-25" value="Wprowadź x" style="shape=parallelogram;perimeter=parallelogramPerimeter;whiteSpace=wrap;html=1;fixedSize=1;" vertex="1" parent="1">
          <mxGeometry x="620" y="880" width="120" height="60" as="geometry" />
        </mxCell>
        <mxCell id="5B2IT87cEvPTBrd7m4uQ-26" value="" style="endArrow=classic;html=1;rounded=0;exitX=0.5;exitY=1;exitDx=0;exitDy=0;" edge="1" parent="1" source="5B2IT87cEvPTBrd7m4uQ-25">
          <mxGeometry width="50" height="50" relative="1" as="geometry">
            <mxPoint x="620" y="1010" as="sourcePoint" />
            <mxPoint x="680" y="980" as="targetPoint" />
          </mxGeometry>
        </mxCell>
        <mxCell id="5B2IT87cEvPTBrd7m4uQ-27" value="i=2" style="whiteSpace=wrap;html=1;aspect=fixed;" vertex="1" parent="1">
          <mxGeometry x="640" y="980" width="80" height="80" as="geometry" />
        </mxCell>
        <mxCell id="5B2IT87cEvPTBrd7m4uQ-28" value="" style="endArrow=classic;html=1;rounded=0;exitX=0.588;exitY=1;exitDx=0;exitDy=0;exitPerimeter=0;" edge="1" parent="1" source="5B2IT87cEvPTBrd7m4uQ-27">
          <mxGeometry width="50" height="50" relative="1" as="geometry">
            <mxPoint x="610" y="1050" as="sourcePoint" />
            <mxPoint x="680" y="1110" as="targetPoint" />
          </mxGeometry>
        </mxCell>
        <mxCell id="5B2IT87cEvPTBrd7m4uQ-29" value="x%i==0" style="rhombus;whiteSpace=wrap;html=1;" vertex="1" parent="1">
          <mxGeometry x="620" y="1110" width="100" height="100" as="geometry" />
        </mxCell>
        <mxCell id="5B2IT87cEvPTBrd7m4uQ-30" value="" style="endArrow=classic;html=1;rounded=0;exitX=1;exitY=0.5;exitDx=0;exitDy=0;" edge="1" parent="1" source="5B2IT87cEvPTBrd7m4uQ-29">
          <mxGeometry width="50" height="50" relative="1" as="geometry">
            <mxPoint x="610" y="1140" as="sourcePoint" />
            <mxPoint x="780" y="1160" as="targetPoint" />
          </mxGeometry>
        </mxCell>
        <mxCell id="5B2IT87cEvPTBrd7m4uQ-31" value="NIE" style="whiteSpace=wrap;html=1;aspect=fixed;" vertex="1" parent="1">
          <mxGeometry x="740" y="1120" width="30" height="30" as="geometry" />
        </mxCell>
        <mxCell id="5B2IT87cEvPTBrd7m4uQ-32" value="TAK" style="whiteSpace=wrap;html=1;aspect=fixed;" vertex="1" parent="1">
          <mxGeometry x="510" y="1110" width="30" height="30" as="geometry" />
        </mxCell>
        <mxCell id="5B2IT87cEvPTBrd7m4uQ-33" value="Wypisz:Nie jest to liczba pierwsza" style="shape=parallelogram;perimeter=parallelogramPerimeter;whiteSpace=wrap;html=1;fixedSize=1;" vertex="1" parent="1">
          <mxGeometry x="780" y="1140" width="120" height="60" as="geometry" />
        </mxCell>
        <mxCell id="5B2IT87cEvPTBrd7m4uQ-34" value="" style="endArrow=classic;html=1;rounded=0;exitX=0;exitY=0.5;exitDx=0;exitDy=0;" edge="1" parent="1" source="5B2IT87cEvPTBrd7m4uQ-29">
          <mxGeometry width="50" height="50" relative="1" as="geometry">
            <mxPoint x="610" y="1140" as="sourcePoint" />
            <mxPoint x="500" y="1160" as="targetPoint" />
          </mxGeometry>
        </mxCell>
        <mxCell id="5B2IT87cEvPTBrd7m4uQ-35" value="i++" style="whiteSpace=wrap;html=1;aspect=fixed;" vertex="1" parent="1">
          <mxGeometry x="390" y="1120" width="110" height="110" as="geometry" />
        </mxCell>
        <mxCell id="5B2IT87cEvPTBrd7m4uQ-36" value="" style="endArrow=classic;html=1;rounded=0;exitX=0.75;exitY=1;exitDx=0;exitDy=0;" edge="1" parent="1" source="5B2IT87cEvPTBrd7m4uQ-35">
          <mxGeometry width="50" height="50" relative="1" as="geometry">
            <mxPoint x="610" y="1140" as="sourcePoint" />
            <mxPoint x="460" y="1280" as="targetPoint" />
          </mxGeometry>
        </mxCell>
        <mxCell id="5B2IT87cEvPTBrd7m4uQ-37" value="STOP" style="ellipse;whiteSpace=wrap;html=1;" vertex="1" parent="1">
          <mxGeometry x="950" y="1120" width="120" height="80" as="geometry" />
        </mxCell>
        <mxCell id="5B2IT87cEvPTBrd7m4uQ-38" value="" style="endArrow=classic;html=1;rounded=0;exitX=1;exitY=0.5;exitDx=0;exitDy=0;" edge="1" parent="1" source="5B2IT87cEvPTBrd7m4uQ-33">
          <mxGeometry width="50" height="50" relative="1" as="geometry">
            <mxPoint x="650" y="1150" as="sourcePoint" />
            <mxPoint x="950" y="1170" as="targetPoint" />
          </mxGeometry>
        </mxCell>
        <mxCell id="5B2IT87cEvPTBrd7m4uQ-40" value="x==i" style="rhombus;whiteSpace=wrap;html=1;" vertex="1" parent="1">
          <mxGeometry x="420" y="1280" width="80" height="80" as="geometry" />
        </mxCell>
        <mxCell id="5B2IT87cEvPTBrd7m4uQ-41" value="" style="endArrow=classic;html=1;rounded=0;exitX=1;exitY=0.5;exitDx=0;exitDy=0;" edge="1" parent="1" source="5B2IT87cEvPTBrd7m4uQ-40" target="5B2IT87cEvPTBrd7m4uQ-29">
          <mxGeometry width="50" height="50" relative="1" as="geometry">
            <mxPoint x="720" y="1240" as="sourcePoint" />
            <mxPoint x="770" y="1190" as="targetPoint" />
          </mxGeometry>
        </mxCell>
        <mxCell id="5B2IT87cEvPTBrd7m4uQ-42" value="NIE" style="whiteSpace=wrap;html=1;aspect=fixed;" vertex="1" parent="1">
          <mxGeometry x="520" y="1240" width="30" height="30" as="geometry" />
        </mxCell>
        <mxCell id="5B2IT87cEvPTBrd7m4uQ-44" value="" style="endArrow=classic;html=1;rounded=0;exitX=0;exitY=0.5;exitDx=0;exitDy=0;" edge="1" parent="1" source="5B2IT87cEvPTBrd7m4uQ-40">
          <mxGeometry width="50" height="50" relative="1" as="geometry">
            <mxPoint x="720" y="1240" as="sourcePoint" />
            <mxPoint x="340" y="1320" as="targetPoint" />
          </mxGeometry>
        </mxCell>
        <mxCell id="5B2IT87cEvPTBrd7m4uQ-45" value="TAK" style="whiteSpace=wrap;html=1;aspect=fixed;" vertex="1" parent="1">
          <mxGeometry x="370" y="1280" width="30" height="30" as="geometry" />
        </mxCell>
        <mxCell id="5B2IT87cEvPTBrd7m4uQ-46" value="Wypisz jest to liczba pierwsza" style="shape=parallelogram;perimeter=parallelogramPerimeter;whiteSpace=wrap;html=1;fixedSize=1;" vertex="1" parent="1">
          <mxGeometry x="210" y="1280" width="140" height="70" as="geometry" />
        </mxCell>
        <mxCell id="5B2IT87cEvPTBrd7m4uQ-48" value="" style="endArrow=classic;html=1;rounded=0;exitX=0.5;exitY=1;exitDx=0;exitDy=0;entryX=0.142;entryY=0.938;entryDx=0;entryDy=0;entryPerimeter=0;" edge="1" parent="1" source="5B2IT87cEvPTBrd7m4uQ-46" target="5B2IT87cEvPTBrd7m4uQ-37">
          <mxGeometry width="50" height="50" relative="1" as="geometry">
            <mxPoint x="600" y="1240" as="sourcePoint" />
            <mxPoint x="650" y="1190" as="targetPoint" />
            <Array as="points">
              <mxPoint x="590" y="1380" />
            </Array>
          </mxGeometry>
        </mxCell>
        <mxCell id="5B2IT87cEvPTBrd7m4uQ-49" value="Zadanie z matury" style="whiteSpace=wrap;html=1;aspect=fixed;" vertex="1" parent="1">
          <mxGeometry x="220" y="1440" width="80" height="80" as="geometry" />
        </mxCell>
        <mxCell id="5B2IT87cEvPTBrd7m4uQ-53" style="edgeStyle=orthogonalEdgeStyle;rounded=0;orthogonalLoop=1;jettySize=auto;html=1;exitX=0.5;exitY=1;exitDx=0;exitDy=0;" edge="1" parent="1" source="5B2IT87cEvPTBrd7m4uQ-51">
          <mxGeometry relative="1" as="geometry">
            <mxPoint x="490" y="1620" as="targetPoint" />
          </mxGeometry>
        </mxCell>
        <mxCell id="5B2IT87cEvPTBrd7m4uQ-51" value="START" style="ellipse;whiteSpace=wrap;html=1;" vertex="1" parent="1">
          <mxGeometry x="430" y="1500" width="120" height="80" as="geometry" />
        </mxCell>
        <mxCell id="5B2IT87cEvPTBrd7m4uQ-54" value="a0=2 0=1" style="whiteSpace=wrap;html=1;aspect=fixed;" vertex="1" parent="1">
          <mxGeometry x="450" y="1620" width="80" height="80" as="geometry" />
        </mxCell>
      </root>
    </mxGraphModel>
  </diagram>
</mxfile>
